Coordinates
version=1
nRows=29
nColumns=22
inDegrees=yes

Units are S.I. units (second, meters, Newtons, ...)
If the header above contains a line with 'inDegrees', this indicates whether rotational values are in degrees (yes) or radians (no).

endheader
time	pelvis_tilt	pelvis_list	pelvis_rotation	pelvis_tx	pelvis_ty	pelvis_tz	hip_flexion_r	hip_adduction_r	hip_rotation_r	knee_angle_r	ankle_angle_r	subtalar_angle_r	hip_flexion_l	hip_adduction_l	hip_rotation_l	knee_angle_l	ankle_angle_l	subtalar_angle_l	lumbar_extension	lumbar_bending	lumbar_rotation
      4.44000000	      0.98899643	      5.93479354	    -99.87743260	      0.22887183	      0.88613826	      0.25340307	     13.61307143	     -2.42654121	      4.60317914	     -8.97603486	      6.81384015	     -2.27017375	      9.46977422	     -1.36710508	     -7.21592283	    -10.70985652	     10.17538064	      6.52043583	      3.01603544	     -3.89475823	      9.00384859
      4.45000000	      0.91456986	      5.84701898	   -100.13746526	      0.22763350	      0.88639501	      0.25712816	     12.90881087	     -2.33976847	      4.73005987	     -8.37649587	      6.83585686	     -2.12902943	      8.52553956	     -1.44426416	     -7.56716855	     -9.74433747	     10.19453521	      6.76659187	      3.31228178	     -3.70512064	      9.64113147
      4.46000000	      0.80391300	      5.78403260	   -100.42914113	      0.22634844	      0.88662543	      0.26066107	     12.31122768	     -2.20654735	      4.91095179	     -7.89946175	      6.87790312	     -1.95990161	      7.67607977	     -1.56844812	     -7.92913752	     -8.90542911	     10.22855082	      6.96927442	      3.60087657	     -3.46964838	     10.29722388
      4.47000000	      0.65971535	      5.74983246	   -100.72995632	      0.22504797	      0.88681762	      0.26399612	     11.82728077	     -2.02952647	      5.12272711	     -7.55134721	      6.93341280	     -1.77302330	      6.93669419	     -1.73613142	     -8.28019337	     -8.20485897	     10.28237169	      7.13018747	      3.88007993	     -3.18982974	     10.89996498
      4.48000000	      0.49452654	      5.72503314	   -101.00283281	      0.22378303	      0.88698886	      0.26714466	     11.42607182	     -1.83051178	      5.32908966	     -7.31864953	      7.01785232	     -1.56337909	      6.29903398	     -1.92707921	     -8.57562152	     -7.65067548	     10.36817352	      7.26994436	      4.12587362	     -2.89075928	     11.40891504
      4.49000000	      0.32466516	      5.75300275	   -101.25197071	      0.22253600	      0.88706838	      0.27004197	     11.16213006	     -1.60976941	      5.52147407	     -7.20114460	      7.09418047	     -1.41582906	      5.85703292	     -2.14349138	     -8.85328016	     -7.32317243	     10.49078599	      7.31863087	      4.38593848	     -2.58657969	     11.85678537
      4.50000000	      0.16468581	      5.75123705	   -101.43486058	      0.22137493	      0.88716656	      0.27279972	     10.89585712	     -1.41242018	      5.69022772	     -7.12310145	      7.21502349	     -1.24022042	      5.48003785	     -2.34096245	     -9.02114144	     -7.13230832	     10.65086235	      7.37247851	      4.57535265	     -2.31545227	     12.17845379
      4.51000000	      0.01205029	      5.77621029	   -101.54862583	      0.22027302	      0.88720036	      0.27532079	     10.72007787	     -1.21339190	      5.78052295	     -7.13897718	      7.34855082	     -1.15271314	      5.26907190	     -2.54575747	     -9.09063129	     -7.14644899	     10.83204708	      7.36119167	      4.75059482	     -2.07078688	     12.41529178
      4.52000000	     -0.10955892	      5.79699065	   -101.59408555	      0.21923479	      0.88720561	      0.27772312	     10.55230843	     -1.05052149	      5.84222362	     -7.16331770	      7.52525771	     -1.10559175	      5.13833539	     -2.71738437	     -9.07516527	     -7.26422652	     11.02972504	      7.33312968	      4.89831307	     -1.88288076	     12.51792181
      4.53000000	     -0.23968288	      5.78629630	   -101.55931815	      0.21827200	      0.88724111	      0.27996770	     10.35104492	     -0.88976515	      5.80636516	     -7.18033976	      7.64253372	     -1.06649953	      5.09386428	     -2.89973327	     -9.01433634	     -7.56686763	     11.27575218	      7.26794733	      4.97093184	     -1.71962364	     12.55274366
      4.54000000	     -0.34735335	      5.77358327	   -101.45045994	      0.21738964	      0.88724716	      0.28209830	     10.15162702	     -0.75721338	      5.71458052	     -7.19816632	      7.79909402	     -1.07679987	      5.10539198	     -3.05514358	     -8.84861131	     -7.92581785	     11.51347182	      7.18394552	      5.02008628	     -1.60362315	     12.48425523
      4.55000000	     -0.44748311	      5.75270180	   -101.27321692	      0.21657866	      0.88724685	      0.28411914	      9.93586145	     -0.63881753	      5.56218879	     -7.19900733	      7.95096094	     -1.13453774	      5.15819672	     -3.19940129	     -8.60750000	     -8.33572902	     11.74560225	      7.07486026	      5.03740670	     -1.51934116	     12.33706133
      4.56000000	     -0.53698270	      5.71839262	   -101.05229290	      0.21582946	      0.88724614	      0.28606109	      9.69556164	     -0.53815946	      5.36595115	     -7.17455599	      8.10605349	     -1.22435979	      5.21968313	     -3.32582050	     -8.32626740	     -8.75701540	     11.97111083	      6.96183978	      5.02455546	     -1.46298352	     12.14340876
      4.57000000	     -0.62131798	      5.67548272	   -100.79898088	      0.21512490	      0.88724706	      0.28793510	      9.43290829	     -0.44690492	      5.13985186	     -7.12032556	      8.25245744	     -1.33292825	      5.27394240	     -3.44120832	     -8.02412442	     -9.15789944	     12.18256279	      6.85265321	      4.98998655	     -1.42577582	     11.92193526
      4.58000000	     -0.70878257	      5.63106571	   -100.52800772	      0.21445917	      0.88725399	      0.28974588	      9.15039911	     -0.35406775	      4.92586252	     -7.02895645	      8.37935652	     -1.48740440	      5.30580434	     -3.55501403	     -7.70282076	     -9.50266275	     12.34906865	      6.72210290	      4.94279779	     -1.39035322	     11.67560193
      4.59000000	     -0.78186450	      5.58296773	   -100.26751299	      0.21381412	      0.88725163	      0.29151736	      8.86884884	     -0.27722621	      4.68457966	     -6.93271651	      8.51013863	     -1.58978930	      5.31311112	     -3.65127029	     -7.43666456	     -9.80169823	     12.53180298	      6.65119886	      4.89002460	     -1.37379018	     11.46579328
      4.60000000	     -0.85470747	      5.54505999	   -100.01701186	      0.21319229	      0.88724259	      0.29324856	      8.59096648	     -0.19858299	      4.46667157	     -6.81423608	      8.62319518	     -1.69044061	      5.29033960	     -3.74610624	     -7.19356151	    -10.02018983	     12.68055817	      6.59415850	      4.84667884	     -1.35216699	     11.25943621
      4.61000000	     -0.92315068	      5.51988978	    -99.79315491	      0.21257219	      0.88721936	      0.29494292	      8.32908485	     -0.12011369	      4.27629931	     -6.68754862	      8.72686480	     -1.78807135	      5.23324808	     -3.83646045	     -6.99593468	    -10.15072624	     12.79518586	      6.55347678	      4.81870883	     -1.32788161	     11.08076690
      4.62000000	     -0.98246305	      5.51145103	    -99.59732445	      0.21196347	      0.88717869	      0.29660843	      8.09487527	     -0.04674402	      4.10778121	     -6.56567062	      8.82437606	     -1.87541242	      5.14672773	     -3.91823365	     -6.85498658	    -10.19320014	     12.88616926	      6.53478968	      4.81323443	     -1.30352505	     10.92699103
      4.63000000	     -1.02417887	      5.53353289	    -99.43858789	      0.21134920	      0.88708865	      0.29819266	      7.91896010	      0.01660928	      4.00289871	     -6.47055907	      8.95168087	     -1.92690497	      5.06085791	     -3.98694133	     -6.76283205	    -10.17304761	     12.95763763	      6.53873758	      4.84248055	     -1.28644072	     10.80489405
      4.64000000	     -1.06079024	      5.55724147	    -99.29293867	      0.21075220	      0.88701353	      0.29977120	      7.75906259	      0.07507137	      3.85485780	     -6.39056644	      9.01994279	     -1.99415377	      4.92704667	     -4.04689692	     -6.71244691	    -10.05977736	     12.99684127	      6.56316513	      4.87883944	     -1.27015790	     10.67188216
      4.65000000	     -1.07729512	      5.62422039	    -99.18533981	      0.21013149	      0.88686806	      0.30125693	      7.67198406	      0.12439213	      3.77341424	     -6.33682046	      9.13798346	     -2.02648766	      4.82231482	     -4.09494755	     -6.70338433	     -9.91155367	     13.02083745	      6.58770174	      4.96507286	     -1.26569691	     10.59237928
      4.66000000	     -1.08117214	      5.69632031	    -99.07499991	      0.20954598	      0.88672176	      0.30268132	      7.61270447	      0.15966043	      3.66916005	     -6.31023168	      9.24021826	     -2.05992086	      4.70921812	     -4.12760550	     -6.70355817	     -9.72410444	     13.02982098	      6.62387277	      5.05501689	     -1.27244710	     10.47818031
      4.67000000	     -1.06747226	      5.76729966	    -98.95534646	      0.20899986	      0.88657946	      0.30400860	      7.57907872	      0.17485814	      3.55975727	     -6.31722653	      9.33712745	     -2.10239562	      4.60055843	     -4.13912363	     -6.68868397	     -9.52582153	     13.02164380	      6.67948031	      5.13620805	     -1.29974227	     10.31740061
      4.68000000	     -1.04616140	      5.85981482	    -98.83448985	      0.20847205	      0.88640761	      0.30525297	      7.57863734	      0.18495679	      3.45412687	     -6.32927545	      9.44552990	     -2.13475434	      4.52940714	     -4.14660744	     -6.67453948	     -9.34242701	     13.01952909	      6.72171178	      5.23766385	     -1.33236923	     10.16095034
      4.69000000	     -1.01461316	      5.96236009	    -98.69048336	      0.20797972	      0.88622374	      0.30639377	      7.60366614	      0.18434453	      3.32048193	     -6.35460204	      9.55820438	     -2.16762328	      4.50056237	     -4.14490719	     -6.62035665	     -9.19549269	     13.02126408	      6.75558462	      5.34087105	     -1.38223703	      9.96364079
      4.70000000	     -0.97972403	      6.07173077	    -98.52225889	      0.20753927	      0.88603404	      0.30745609	      7.62914713	      0.17691779	      3.17158028	     -6.35947231	      9.67929235	     -2.19642745	      4.51889202	     -4.13938365	     -6.53504888	     -9.10433133	     13.04518131	      6.76970549	      5.44398472	     -1.43746032	      9.74618415
      4.71000000	     -0.94207266	      6.18289396	    -98.31827269	      0.20715894	      0.88584900	      0.30839788	      7.66629132	      0.16219557	      2.98816100	     -6.37190121	      9.77765513	     -2.22908612	      4.60030663	     -4.13185339	     -6.39661246	     -9.10148606	     13.09282078	      6.76331741	      5.53300026	     -1.50229767	      9.47056603
      4.72000000	     -0.92511884	      6.31993670	    -98.07860310	      0.20685082	      0.88563930	      0.30921008	      7.74741227	      0.16991826	      2.76610271	     -6.41009585	      9.83791511	     -2.27154410	      4.76307928	     -4.14745505	     -6.20477167	     -9.17504692	     13.16973925	      6.71278036	      5.63072906	     -1.54142464	      9.16130061
